<?xml version="1.0" standalone="no"?><!DOCTYPE svg PUBLIC "-//W3C//DTD SVG 1.1//EN" "http://www.w3.org/Graphics/SVG/1.1/DTD/svg11.dtd"><svg t="1501494915436" class="icon" style="" viewBox="0 0 1024 1024" version="1.1" xmlns="http://www.w3.org/2000/svg" p-id="19736" xmlns:xlink="http://www.w3.org/1999/xlink" width="150" height="150"><defs><style type="text/css"></style></defs><path d="M471.5008 727.1936a23.9104 23.9104 0 0 1-29.1072 17.4848l-250.368-62.1056a24.2688 24.2688 0 0 1-17.664-29.1328 23.8848 23.8848 0 0 1 20.0192-18.0224c0.9728-0.1024 2.2016-0.256 3.328-0.256a24.32 24.32 0 0 1 5.7856 0.7936l250.5216 62.1056a23.9616 23.9616 0 0 1 17.4848 29.1328M561.92 727.1936a23.9104 23.9104 0 0 0 29.0816 17.4848l250.3936-62.1056a24.2688 24.2688 0 0 0 17.664-29.1328 23.8848 23.8848 0 0 0-20.0448-18.0224c-0.9728-0.1024-2.2016-0.256-3.3024-0.256a24.32 24.32 0 0 0-5.8112 0.7936l-250.5216 62.1056a23.9616 23.9616 0 0 0-17.4848 29.1328M471.424 606.0288a22.7328 22.7328 0 0 1-6.6304 11.52 24.6784 24.6784 0 0 1-22.4768 5.9136L191.9232 561.408a25.3696 25.3696 0 0 1-16.256-13.3888 26.112 26.112 0 0 1-1.3824-15.6928 24.2176 24.2176 0 0 1 29.1328-17.536l250.5216 62.1056c12.8512 3.3536 20.864 16.3328 17.4848 29.1328M561.92 606.0288c0.9728 4.4288 3.3024 8.32 6.6048 11.52a24.6784 24.6784 0 0 0 22.4768 5.9136l250.3936-62.0544a25.3696 25.3696 0 0 0 16.256-13.3888c2.0736-4.9664 2.56-10.368 1.408-15.6928a24.2176 24.2176 0 0 0-29.1584-17.536l-250.5216 62.1056a23.9872 23.9872 0 0 0-17.4848 29.1328M471.5008 484.9664a23.9104 23.9104 0 0 1-29.1072 17.4592l-250.368-62.1824a24.064 24.064 0 0 1-17.664-29.0048 24.2176 24.2176 0 0 1 29.1328-17.5616l250.5216 62.208a23.808 23.808 0 0 1 17.4848 29.0816M471.5008 363.9296a23.8336 23.8336 0 0 1-23.1168 18.176c-2.1248 0-4.0448-0.2816-5.9904-0.6656l-250.368-62.2848a24.064 24.064 0 0 1-17.664-28.9536 24.2176 24.2176 0 0 1 23.4496-18.2784c1.8688 0 3.7888 0.256 5.6832 0.7936l250.5216 62.1056c12.8512 3.328 20.864 16.3328 17.4848 29.1072" fill="#ffffff" p-id="19737"></path><path d="M921.0112 765.6192l-397.312 95.0016-2.1504-0.2816-396.8512-94.72V156.7488l398.208 95.232 12.3904-2.944 385.7152-92.288v608.8704zM945.1008 102.4a19.6864 19.6864 0 0 0-5.5808 0.6912l-22.784 5.376-393.8304 94.208-416.512-99.584A23.936 23.936 0 0 0 76.8 126.336l0.0256 658.0736c0 11.2384 7.6288 20.7872 18.3552 23.4496l422.144 100.9152a22.5792 22.5792 0 0 0 10.88 0l31.0016-7.424 14.6432-3.5584 13.5168-3.072c19.4048-4.6592 42.4704-10.24 67.6352-16.2304l5.2992-1.2288c3.584-0.9216 7.1168-1.7408 10.6496-2.6624l116.3776-27.6992c12.8-3.0208 25.216-6.0416 37.376-9.088l42.9312-10.1376c3.7376-1.0496 7.6032-1.9456 11.264-2.7648l4.096-0.9216c7.5008-1.8688 14.5152-3.4048 20.8128-5.0944l27.4944-6.4768c1.408-0.384 2.816-0.64 3.9424-1.0752l5.0432-1.2288c2.944-0.5632 5.2736-1.1008 6.9632-1.5616 1.7408-0.384 2.688-0.5632 2.9696-0.6912a23.9616 23.9616 0 0 0 18.688-23.4496V126.336A23.8592 23.8592 0 0 0 945.1264 102.4z" fill="#ffffff" p-id="19738"></path><path d="M748.4928 312.704v138.752c0 7.68-5.1712 14.4384-12.7744 16.1792l-153.984 37.888a16.768 16.768 0 0 1-20.608-16.1792v-138.8032c0-7.7568 5.2992-14.4128 12.7232-16.2816l153.984-37.7856c1.408-0.1792 2.6624-0.3328 4.0704-0.3328 9.1136 0 16.5888 7.424 16.5888 16.5632" fill="#ffffff" p-id="19739"></path></svg>